<svg xmlns="http://www.w3.org/2000/svg" xmlns:xlink="http://www.w3.org/1999/xlink" width="1000" zoomAndPan="magnify" viewBox="0 0 750 749.999995" height="1000" preserveAspectRatio="xMidYMid meet" version="1.0"><defs><g/><clipPath id="078d7f2999"><path d="M 35.25 0 L 714.75 0 C 724.097656 0 733.066406 3.714844 739.675781 10.324219 C 746.285156 16.933594 750 25.902344 750 35.25 L 750 714.75 C 750 724.097656 746.285156 733.066406 739.675781 739.675781 C 733.066406 746.285156 724.097656 750 714.75 750 L 35.25 750 C 25.902344 750 16.933594 746.285156 10.324219 739.675781 C 3.714844 733.066406 0 724.097656 0 714.75 L 0 35.25 C 0 25.902344 3.714844 16.933594 10.324219 10.324219 C 16.933594 3.714844 25.902344 0 35.25 0 Z M 35.25 0 " clip-rule="nonzero"/></clipPath><clipPath id="fb04203ca4"><path d="M 0 0 L 750 0 L 750 750 L 0 750 Z M 0 0 " clip-rule="nonzero"/></clipPath><clipPath id="5286c04def"><path d="M 35.25 0 L 714.75 0 C 724.097656 0 733.066406 3.714844 739.675781 10.324219 C 746.285156 16.933594 750 25.902344 750 35.25 L 750 714.75 C 750 724.097656 746.285156 733.066406 739.675781 739.675781 C 733.066406 746.285156 724.097656 750 714.75 750 L 35.25 750 C 25.902344 750 16.933594 746.285156 10.324219 739.675781 C 3.714844 733.066406 0 724.097656 0 714.75 L 0 35.25 C 0 25.902344 3.714844 16.933594 10.324219 10.324219 C 16.933594 3.714844 25.902344 0 35.25 0 Z M 35.25 0 " clip-rule="nonzero"/></clipPath><linearGradient x1="0" gradientTransform="matrix(2.929687, 0, 0, 2.929687, 0.00000265, 0.00002)" y1="0" x2="255.999999" gradientUnits="userSpaceOnUse" y2="255.999999" id="0a704d3c2e"><stop stop-opacity="1" stop-color="rgb(8.628845%, 18.818665%, 36.468506%)" offset="0"/><stop stop-opacity="1" stop-color="rgb(8.604431%, 18.983459%, 36.480713%)" offset="0.015625"/><stop stop-opacity="1" stop-color="rgb(8.555603%, 19.314575%, 36.506653%)" offset="0.03125"/><stop stop-opacity="1" stop-color="rgb(8.506775%, 19.645691%, 36.531067%)" offset="0.046875"/><stop stop-opacity="1" stop-color="rgb(8.457947%, 19.976807%, 36.555481%)" offset="0.0625"/><stop stop-opacity="1" stop-color="rgb(8.407593%, 20.307922%, 36.579895%)" offset="0.078125"/><stop stop-opacity="1" stop-color="rgb(8.358765%, 20.639038%, 36.604309%)" offset="0.09375"/><stop stop-opacity="1" stop-color="rgb(8.309937%, 20.970154%, 36.628723%)" offset="0.109375"/><stop stop-opacity="1" stop-color="rgb(8.261108%, 21.30127%, 36.653137%)" offset="0.125"/><stop stop-opacity="1" stop-color="rgb(8.21228%, 21.630859%, 36.677551%)" offset="0.140625"/><stop stop-opacity="1" stop-color="rgb(8.163452%, 21.961975%, 36.701965%)" offset="0.15625"/><stop stop-opacity="1" stop-color="rgb(8.114624%, 22.293091%, 36.726379%)" offset="0.171875"/><stop stop-opacity="1" stop-color="rgb(8.06427%, 22.624207%, 36.750793%)" offset="0.1875"/><stop stop-opacity="1" stop-color="rgb(8.015442%, 22.955322%, 36.775208%)" offset="0.203125"/><stop stop-opacity="1" stop-color="rgb(7.966614%, 23.286438%, 36.799622%)" offset="0.21875"/><stop stop-opacity="1" stop-color="rgb(7.917786%, 23.617554%, 36.825562%)" offset="0.234375"/><stop stop-opacity="1" stop-color="rgb(7.868958%, 23.948669%, 36.849976%)" offset="0.25"/><stop stop-opacity="1" stop-color="rgb(7.820129%, 24.279785%, 36.87439%)" offset="0.265625"/><stop stop-opacity="1" stop-color="rgb(7.769775%, 24.609375%, 36.898804%)" offset="0.28125"/><stop stop-opacity="1" stop-color="rgb(7.720947%, 24.940491%, 36.923218%)" offset="0.296875"/><stop stop-opacity="1" stop-color="rgb(7.672119%, 25.271606%, 36.947632%)" offset="0.3125"/><stop stop-opacity="1" stop-color="rgb(7.623291%, 25.602722%, 36.972046%)" offset="0.328125"/><stop stop-opacity="1" stop-color="rgb(7.574463%, 25.933838%, 36.99646%)" offset="0.34375"/><stop stop-opacity="1" stop-color="rgb(7.525635%, 26.264954%, 37.020874%)" offset="0.359375"/><stop stop-opacity="1" stop-color="rgb(7.476807%, 26.596069%, 37.045288%)" offset="0.375"/><stop stop-opacity="1" stop-color="rgb(7.426453%, 26.927185%, 37.069702%)" offset="0.390625"/><stop stop-opacity="1" stop-color="rgb(7.377625%, 27.256775%, 37.094116%)" offset="0.40625"/><stop stop-opacity="1" stop-color="rgb(7.328796%, 27.587891%, 37.11853%)" offset="0.421875"/><stop stop-opacity="1" stop-color="rgb(7.279968%, 27.919006%, 37.14447%)" offset="0.4375"/><stop stop-opacity="1" stop-color="rgb(7.23114%, 28.250122%, 37.168884%)" offset="0.453125"/><stop stop-opacity="1" stop-color="rgb(7.182312%, 28.581238%, 37.193298%)" offset="0.46875"/><stop stop-opacity="1" stop-color="rgb(7.131958%, 28.912354%, 37.217712%)" offset="0.484375"/><stop stop-opacity="1" stop-color="rgb(7.08313%, 29.243469%, 37.242126%)" offset="0.5"/><stop stop-opacity="1" stop-color="rgb(7.034302%, 29.574585%, 37.266541%)" offset="0.515625"/><stop stop-opacity="1" stop-color="rgb(6.985474%, 29.905701%, 37.290955%)" offset="0.53125"/><stop stop-opacity="1" stop-color="rgb(6.936646%, 30.235291%, 37.315369%)" offset="0.546875"/><stop stop-opacity="1" stop-color="rgb(6.887817%, 30.566406%, 37.339783%)" offset="0.5625"/><stop stop-opacity="1" stop-color="rgb(6.838989%, 30.897522%, 37.364197%)" offset="0.578125"/><stop stop-opacity="1" stop-color="rgb(6.788635%, 31.228638%, 37.388611%)" offset="0.59375"/><stop stop-opacity="1" stop-color="rgb(6.739807%, 31.559753%, 37.413025%)" offset="0.609375"/><stop stop-opacity="1" stop-color="rgb(6.690979%, 31.890869%, 37.437439%)" offset="0.625"/><stop stop-opacity="1" stop-color="rgb(6.642151%, 32.221985%, 37.463379%)" offset="0.640625"/><stop stop-opacity="1" stop-color="rgb(6.593323%, 32.553101%, 37.487793%)" offset="0.65625"/><stop stop-opacity="1" stop-color="rgb(6.544495%, 32.88269%, 37.512207%)" offset="0.671875"/><stop stop-opacity="1" stop-color="rgb(6.494141%, 33.213806%, 37.536621%)" offset="0.6875"/><stop stop-opacity="1" stop-color="rgb(6.445312%, 33.544922%, 37.561035%)" offset="0.703125"/><stop stop-opacity="1" stop-color="rgb(6.396484%, 33.876038%, 37.585449%)" offset="0.71875"/><stop stop-opacity="1" stop-color="rgb(6.347656%, 34.207153%, 37.609863%)" offset="0.734375"/><stop stop-opacity="1" stop-color="rgb(6.298828%, 34.538269%, 37.634277%)" offset="0.75"/><stop stop-opacity="1" stop-color="rgb(6.25%, 34.869385%, 37.658691%)" offset="0.765625"/><stop stop-opacity="1" stop-color="rgb(6.201172%, 35.2005%, 37.683105%)" offset="0.78125"/><stop stop-opacity="1" stop-color="rgb(6.150818%, 35.531616%, 37.70752%)" offset="0.796875"/><stop stop-opacity="1" stop-color="rgb(6.10199%, 35.861206%, 37.731934%)" offset="0.8125"/><stop stop-opacity="1" stop-color="rgb(6.053162%, 36.192322%, 37.756348%)" offset="0.828125"/><stop stop-opacity="1" stop-color="rgb(6.004333%, 36.523438%, 37.782288%)" offset="0.84375"/><stop stop-opacity="1" stop-color="rgb(5.955505%, 36.854553%, 37.806702%)" offset="0.859375"/><stop stop-opacity="1" stop-color="rgb(5.906677%, 37.185669%, 37.831116%)" offset="0.875"/><stop stop-opacity="1" stop-color="rgb(5.857849%, 37.516785%, 37.85553%)" offset="0.890625"/><stop stop-opacity="1" stop-color="rgb(5.807495%, 37.8479%, 37.879944%)" offset="0.90625"/><stop stop-opacity="1" stop-color="rgb(5.758667%, 38.179016%, 37.904358%)" offset="0.921875"/><stop stop-opacity="1" stop-color="rgb(5.709839%, 38.508606%, 37.928772%)" offset="0.9375"/><stop stop-opacity="1" stop-color="rgb(5.661011%, 38.839722%, 37.953186%)" offset="0.953125"/><stop stop-opacity="1" stop-color="rgb(5.612183%, 39.170837%, 37.9776%)" offset="0.96875"/><stop stop-opacity="1" stop-color="rgb(5.563354%, 39.501953%, 38.002014%)" offset="0.984375"/><stop stop-opacity="1" stop-color="rgb(5.513%, 39.833069%, 38.026428%)" offset="1"/></linearGradient><clipPath id="8862987f37"><rect x="0" width="750" y="0" height="750"/></clipPath><clipPath id="762d278bca"><rect x="0" width="419" y="0" height="430"/></clipPath></defs><g clip-path="url(#078d7f2999)"><g transform="matrix(1, 0, 0, 1, 0, -0.000000000000042435)"><g clip-path="url(#8862987f37)"><g clip-path="url(#fb04203ca4)"><g clip-path="url(#5286c04def)"><rect x="-165" fill="url(#0a704d3c2e)" width="1080" height="1079.999992" y="-164.999999"/></g></g></g></g></g><g transform="matrix(1, 0, 0, 1, 166, 160)"><g clip-path="url(#762d278bca)"><g fill="#ffffff" fill-opacity="1"><g transform="translate(0.887402, 326.651841)"><g><path d="M 22.421875 0 L 22.421875 -230.859375 L 101.25 -230.859375 C 128.289062 -230.859375 150.550781 -226.078125 168.03125 -216.515625 C 185.507812 -206.953125 198.476562 -193.539062 206.9375 -176.28125 C 215.40625 -159.019531 219.640625 -138.734375 219.640625 -115.421875 C 219.640625 -92.117188 215.40625 -71.835938 206.9375 -54.578125 C 198.476562 -37.316406 185.507812 -23.90625 168.03125 -14.34375 C 150.550781 -4.78125 128.289062 0 101.25 0 Z M 64.640625 -36.28125 L 99.265625 -36.28125 C 118.617188 -36.28125 133.898438 -39.410156 145.109375 -45.671875 C 156.328125 -51.941406 164.351562 -60.957031 169.1875 -72.71875 C 174.019531 -84.476562 176.4375 -98.710938 176.4375 -115.421875 C 176.4375 -131.910156 174.019531 -146.09375 169.1875 -157.96875 C 164.351562 -169.84375 156.328125 -178.96875 145.109375 -185.34375 C 133.898438 -191.71875 118.617188 -194.90625 99.265625 -194.90625 L 64.640625 -194.90625 Z M 64.640625 -36.28125 "/></g></g></g><g fill="#ffffff" fill-opacity="1"><g transform="translate(235.376752, 326.651841)"><g><path d="M 22.421875 0 L 22.421875 -230.859375 L 171.5 -230.859375 L 171.5 -196.890625 L 64.640625 -196.890625 L 64.640625 -132.25 L 151.046875 -132.25 L 151.046875 -98.9375 L 64.640625 -98.9375 L 64.640625 0 Z M 22.421875 0 "/></g></g></g></g></g></svg>